<svg version="1" xmlns="http://www.w3.org/2000/svg" width="2133.333" height="2133.333" viewBox="0 0 1600.000000 1600.000000"><path d="M616 1.5c-10.5 3.3-25.8 23.8-27.6 37-.3 2.7-.8 6.1-1 7.5-1.3 9.9-1.8 104.1-1.7 355 0 286.6.3 329.3 2.2 334.3 1.5 3.8 7.9 10.6 12.2 12.7 2 1.1 6.5 2.4 10 2.9 3.5.6 8.1 1.3 10.2 1.6 3.1.5 3.7.3 3.8-1.2.3-5.3-.2-699.1-.5-722-.2-14.9-.7-27.7-1.1-28.2-.8-1.3-.9-1.3-6.5.4z"/><path d="M129.5 84.5c-23.8 4.3-42.6 18.2-53 39-5.5 11-7.5 18.4-7.9 29.5-.7 19.5 6.7 37.6 22.2 54l6 6.3-.2 311.6c-.1 262.6-.3 311.6-1.5 311.3-2.6-.6-12.6 3-16.9 6.1-5.8 4.2-8.1 8.3-9.1 16.4-.5 3.7-.8 22.6-.7 41.8l.2 35.1 3.2 4.6c4.6 6.8 9.7 10.6 15.6 11.7 2.8.6 21.1 1.3 40.6 1.7 49.4.9 44.6.4 44.2 4.4-.2 1.9-.6 4.3-.9 5.5-.9 3.8-1.1 39.9-.2 47 1.7 14.7 2.1 17.2 3.4 23 .8 3.3 1.6 7.3 1.9 8.8 1 5.7 7.6 25.9 11.1 34.2.7 1.6 2.6 5.9 4.1 9.5 3 7 7.2 15.2 18.3 35.5 3.9 7.1 7.1 13.7 7.1 14.5.1 1.9 7.9 33 11.8 47 9.5 34 24.8 71 47.2 114.6l10.8 21.1.7 20.4c.4 11.2.9 26.9 1 34.9.5 19.2.7 100.2.3 100.6-.2.2-1.9.6-3.8.9-4.5.7-15.3 4.2-21 6.8-14.4 6.4-28 19.8-34.7 34.2-2.6 5.7-2.8 6.8-2.8 20.5v14.5l3.8 7.6c9.4 18.6 23.1 29.9 45.7 37.6l8.5 2.9 415.5-.1c228.5-.1 420-.5 425.5-.8 19.5-1.2 24.6-2.2 33-6.6 11.2-6 15.3-8.9 21.3-15 22-22.5 23.4-53.1 3.7-76-10.3-11.9-26.5-21.6-41-24.5-7.2-1.4-26.3-2.8-40.2-3-5.2 0-5.3-.1-5.4-3.1-.1-7.9.3-76.8.6-82.5 1.2-29.3 8.6-48.7 23.8-62.7 7.5-6.8 16.5-11.2 36.8-18.1 42.8-14.5 65.9-25.7 99.9-48.5 20-13.3 60.9-44.8 78.4-60.1 9.5-8.3 29.8-28.6 37.1-37 3.3-3.8 6.5-7.4 7-8 6.9-7.3 26-35 32.5-47.1 2.3-4.4 4.7-8.5 5.1-9.1 1.7-2.1 11.2-24.1 14-32.4 2.6-7.4 5.4-17.2 6.4-22 5.3-26 6.3-35.5 6-57-.2-10.2-.6-21.3-1-24.8-.4-3.4-.3-6.3.2-6.3 3.5-.6 8.9-.8 30.8-1.3 28.5-.7 33.4-1.1 38.4-2.7 4.3-1.5 13.6-10.1 16.1-15 2.7-5.2 3.2-11 3.5-42.2.3-29.5-.2-34.3-4.4-41.1-3.2-5.1-10.6-11.5-16.4-14.1l-5.2-2.3H1017c-269.2 0-490.2-.1-491.1-.1-1.5-.1-1.6-23-1.5-277.6 0-152.6.4-277.5.7-277.5.4 0 .7 5.1.8 11.2.1 8.7.6 12.1 2 14.8 2.2 4.4 8.9 8 14.8 8 2.3 0 4.2.3 4.2.7-.1.5-.1 3.4 0 6.5.2 8.3 2.5 10.7 10.9 11.2 7.4.5 11.9-.6 13.8-3.1 1.1-1.6 1.6-3.4 2.9-12.3.5-3.2 1.4-27.9 2-53.3l.4-19.7-4.4-4.4-4.3-4.4-16.4.3c-23.7.3-24.9 1.2-25.6 19-.2 6-.9 11.4-1.4 12-.7.7-.9.6-.5-.1.3-.6.7-9.4.8-19.7.1-10.2.4-19.7.6-21 .3-1.6 1.6-2.8 4.1-3.8 4.2-1.6 16.4-7.9 17.2-8.8.3-.3 2.1-1.8 4.1-3.3 8.4-6.3 16.2-15.9 20.8-25.8 14.3-30.8 4.6-66.8-23.4-86.9-4.6-3.3-6.2-4.3-11.2-7.1-3.3-1.7-10.8-4.8-13.3-5.4-1.4-.3-3.8-.9-5.5-1.3-1.6-.3-88.3-.7-192.5-.8-149.8-.2-191 0-196.5 1zM526 270.9c0 1.1-.3 2.2-.7 2.4-.5.3-.8-.6-.8-1.9 0-1.3.3-2.4.8-2.4.4 0 .7.9.7 1.9zm-.4 6.5c0 1.3-.4 2.2-.8 2-.9-.6-.6-4.4.3-4.4.4 0 .6 1.1.5 2.4z"/><path d="M592.3 754.1c-3.3 3.3 5.2 24.2 14.4 35.9 4.1 5.2 15.7 16.5 21.4 21.1l3.9 3.1v-5.4c.1-9.8 5.5-17.4 14.3-20 5.5-1.5 5.5-1.5 6.9-1.7.7 0-3.1-3-8.4-6.6-9.9-6.6-21.8-17.5-21.8-19.9 0-.8-.8-2.3-1.7-3.4-1.6-1.8-3.4-2.1-14.1-2.6-6.8-.3-12.7-.8-13.1-1.1-.4-.2-1.2 0-1.8.6z"/><path d="M649.5 790.9c-8 3.7-12.5 10-13 18.4-1.2 21.9 25.6 32.7 39.4 16 14.8-17.9-5.2-43.9-26.4-34.4zM724.8 789.5c-.2.2-4.6.5-9.8.6-7.7.3-10.3.8-15 3-10.9 5.1-14.8 13.1-16.6 33.5l-.6 7.1h834l-.3-3.8c-.7-6.5-5.4-14.9-11.9-21.4-6.7-6.6-17.6-12.6-30.6-16.9l-7.5-2.4h-370.7c-203.9 0-370.8.2-371 .3z"/></svg>